<mxfile host="65bd71144e" modified="2022-10-16T06:19:14.125Z" agent="5.0 (Windows NT 10.0; Win64; x64) AppleWebKit/537.36 (KHTML, like Gecko) Code/1.72.2 Chrome/102.0.5005.167 Electron/19.0.17 Safari/537.36" etag="97tnVwtGNca9vLxbOB-4" version="20.4.1" type="embed">
    <diagram id="c2gmq8aP_JKwdDlsIQsd" name="ページ1">
        <mxGraphModel dx="1294" dy="617" grid="1" gridSize="10" guides="1" tooltips="1" connect="1" arrows="1" fold="1" page="1" pageScale="1" pageWidth="827" pageHeight="1169" math="0" shadow="0">
            <root>
                <mxCell id="0"/>
                <mxCell id="1" parent="0"/>
                <mxCell id="53" value="" style="edgeStyle=none;html=1;" parent="1" source="2" target="52" edge="1">
                    <mxGeometry relative="1" as="geometry"/>
                </mxCell>
                <mxCell id="2" value="start" style="ellipse;whiteSpace=wrap;html=1;" parent="1" vertex="1">
                    <mxGeometry x="45" y="150" width="120" height="80" as="geometry"/>
                </mxCell>
                <mxCell id="7" value="" style="edgeStyle=none;html=1;" parent="1" source="4" target="6" edge="1">
                    <mxGeometry relative="1" as="geometry"/>
                </mxCell>
                <mxCell id="49" style="edgeStyle=none;html=1;exitX=1;exitY=0.5;exitDx=0;exitDy=0;entryX=1;entryY=1;entryDx=0;entryDy=0;" parent="1" source="4" target="10" edge="1">
                    <mxGeometry relative="1" as="geometry">
                        <mxPoint x="790" y="519.9999999999998" as="targetPoint"/>
                        <Array as="points">
                            <mxPoint x="760" y="295"/>
                            <mxPoint x="760" y="1025"/>
                        </Array>
                    </mxGeometry>
                </mxCell>
                <mxCell id="4" value="初手曲がり角？&lt;br&gt;（2歩目 == 列？）" style="rhombus;whiteSpace=wrap;html=1;" parent="1" vertex="1">
                    <mxGeometry x="351" y="240" width="126" height="110" as="geometry"/>
                </mxCell>
                <mxCell id="9" style="edgeStyle=none;html=1;exitX=0.5;exitY=1;exitDx=0;exitDy=0;entryX=0.5;entryY=0;entryDx=0;entryDy=0;" parent="1" source="6" target="8" edge="1">
                    <mxGeometry relative="1" as="geometry"/>
                </mxCell>
                <mxCell id="6" value="スラローム速度まで加速して90°右スラローム" style="whiteSpace=wrap;html=1;" parent="1" vertex="1">
                    <mxGeometry x="335" y="392.5" width="156" height="55" as="geometry"/>
                </mxCell>
                <mxCell id="33" style="edgeStyle=none;html=1;exitX=0.5;exitY=1;exitDx=0;exitDy=0;entryX=0.5;entryY=0;entryDx=0;entryDy=0;" parent="1" source="8" target="14" edge="1">
                    <mxGeometry relative="1" as="geometry"/>
                </mxCell>
                <mxCell id="42" style="edgeStyle=none;html=1;exitX=1;exitY=0.5;exitDx=0;exitDy=0;entryX=1;entryY=0.5;entryDx=0;entryDy=0;" parent="1" source="8" target="10" edge="1">
                    <mxGeometry relative="1" as="geometry">
                        <Array as="points">
                            <mxPoint x="700" y="535"/>
                            <mxPoint x="700" y="983"/>
                        </Array>
                    </mxGeometry>
                </mxCell>
                <mxCell id="8" value="曲がり角？&lt;br&gt;（3歩目 == 行？）" style="rhombus;whiteSpace=wrap;html=1;" parent="1" vertex="1">
                    <mxGeometry x="351" y="480" width="126" height="110" as="geometry"/>
                </mxCell>
                <mxCell id="50" style="edgeStyle=none;html=1;exitX=0.5;exitY=1;exitDx=0;exitDy=0;entryX=0;entryY=0.5;entryDx=0;entryDy=0;" parent="1" source="10" target="8" edge="1">
                    <mxGeometry relative="1" as="geometry">
                        <Array as="points">
                            <mxPoint x="419" y="1130"/>
                            <mxPoint x="260" y="1130"/>
                            <mxPoint x="260" y="535"/>
                        </Array>
                    </mxGeometry>
                </mxCell>
                <mxCell id="10" value="曲がり角が来るまで（&lt;u&gt;&lt;b&gt;n歩目 == 行&lt;/b&gt;&lt;/u&gt;）&lt;br&gt;先のパスを見てマス数を数える" style="whiteSpace=wrap;html=1;" parent="1" vertex="1">
                    <mxGeometry x="320" y="940" width="198.5" height="85" as="geometry"/>
                </mxCell>
                <mxCell id="37" style="edgeStyle=none;html=1;exitX=0.5;exitY=1;exitDx=0;exitDy=0;entryX=0.5;entryY=0;entryDx=0;entryDy=0;" parent="1" source="14" target="36" edge="1">
                    <mxGeometry relative="1" as="geometry"/>
                </mxCell>
                <mxCell id="38" style="edgeStyle=none;html=1;exitX=1;exitY=0.5;exitDx=0;exitDy=0;" parent="1" source="14" target="35" edge="1">
                    <mxGeometry relative="1" as="geometry"/>
                </mxCell>
                <mxCell id="14" value="前ノードと次ノードののxyの傾き&lt;br&gt;==&amp;nbsp;" style="rhombus;whiteSpace=wrap;html=1;" parent="1" vertex="1">
                    <mxGeometry x="296" y="630" width="236" height="170" as="geometry"/>
                </mxCell>
                <mxCell id="18" value="YES" style="text;html=1;resizable=0;autosize=1;align=center;verticalAlign=middle;points=[];fillColor=none;strokeColor=none;rounded=0;" parent="1" vertex="1">
                    <mxGeometry x="427" y="340" width="50" height="30" as="geometry"/>
                </mxCell>
                <mxCell id="22" value="YES" style="text;html=1;resizable=0;autosize=1;align=center;verticalAlign=middle;points=[];fillColor=none;strokeColor=none;rounded=0;" parent="1" vertex="1">
                    <mxGeometry x="414" y="595" width="50" height="30" as="geometry"/>
                </mxCell>
                <mxCell id="23" value="NO" style="text;html=1;resizable=0;autosize=1;align=center;verticalAlign=middle;points=[];fillColor=none;strokeColor=none;rounded=0;" parent="1" vertex="1">
                    <mxGeometry x="460" y="257.5" width="40" height="30" as="geometry"/>
                </mxCell>
                <mxCell id="24" value="曲がり角が来るまで（&lt;u&gt;&lt;b&gt;n歩目 == 列&lt;/b&gt;&lt;/u&gt;）&lt;br&gt;先のパスを見てマス数を数える" style="whiteSpace=wrap;html=1;" parent="1" vertex="1">
                    <mxGeometry x="394" y="20" width="200" height="75" as="geometry"/>
                </mxCell>
                <mxCell id="26" value="NO" style="text;html=1;resizable=0;autosize=1;align=center;verticalAlign=middle;points=[];fillColor=none;strokeColor=none;rounded=0;" parent="1" vertex="1">
                    <mxGeometry x="474" y="500" width="40" height="30" as="geometry"/>
                </mxCell>
                <mxCell id="29" value="YES" style="text;html=1;resizable=0;autosize=1;align=center;verticalAlign=middle;points=[];fillColor=none;strokeColor=none;rounded=0;" parent="1" vertex="1">
                    <mxGeometry x="700" y="70" width="50" height="30" as="geometry"/>
                </mxCell>
                <mxCell id="47" style="edgeStyle=none;html=1;exitX=0.5;exitY=1;exitDx=0;exitDy=0;entryX=1;entryY=0;entryDx=0;entryDy=0;" parent="1" source="35" target="10" edge="1">
                    <mxGeometry relative="1" as="geometry">
                        <mxPoint x="520" y="940" as="targetPoint"/>
                        <Array as="points">
                            <mxPoint x="626" y="940"/>
                        </Array>
                    </mxGeometry>
                </mxCell>
                <mxCell id="35" value="右90°スラローム" style="rounded=0;whiteSpace=wrap;html=1;" parent="1" vertex="1">
                    <mxGeometry x="566" y="685" width="120" height="60" as="geometry"/>
                </mxCell>
                <mxCell id="46" style="edgeStyle=none;html=1;exitX=0.5;exitY=1;exitDx=0;exitDy=0;entryX=0.465;entryY=-0.016;entryDx=0;entryDy=0;entryPerimeter=0;" parent="1" source="36" target="10" edge="1">
                    <mxGeometry relative="1" as="geometry"/>
                </mxCell>
                <mxCell id="36" value="左90°スラローム" style="rounded=0;whiteSpace=wrap;html=1;" parent="1" vertex="1">
                    <mxGeometry x="354" y="840" width="120" height="60" as="geometry"/>
                </mxCell>
                <mxCell id="41" value="&lt;h1&gt;簡易版最短走行&lt;/h1&gt;&lt;p&gt;「探索90°スラロームと加減速のみを用いた簡易な最短走行」のための動作配列を作成する関数のフロー。&lt;/p&gt;" style="text;html=1;strokeColor=none;fillColor=none;spacing=5;spacingTop=-20;whiteSpace=wrap;overflow=hidden;rounded=0;" parent="1" vertex="1">
                    <mxGeometry x="10" y="10" width="190" height="120" as="geometry"/>
                </mxCell>
                <mxCell id="52" value="is node GOAL??" style="rhombus;whiteSpace=wrap;html=1;" parent="1" vertex="1">
                    <mxGeometry x="64" y="250" width="80" height="80" as="geometry"/>
                </mxCell>
                <mxCell id="54" value="減速" style="rounded=0;whiteSpace=wrap;html=1;" parent="1" vertex="1">
                    <mxGeometry x="45" y="350" width="120" height="60" as="geometry"/>
                </mxCell>
            </root>
        </mxGraphModel>
    </diagram>
</mxfile>